<?xml version="1.0" encoding="utf-8"?>
<svg version="1.1" id="Layer_1" xmlns="http://www.w3.org/2000/svg" xmlns:xlink="http://www.w3.org/1999/xlink" x="0px" y="0px"
	 viewBox="0 0 1024 1024" style="enable-background:new 0 0 1024 864;" xml:space="preserve">
<style type="text/css">
	.st0{opacity:0;}
	.st1{fill:#231F20;}
	.st2{fill:#6D0000;}
	.st3{fill:#A90000;}
	.st4{fill:#DD0202;}
	.st5{fill:#720202;}
	.st6{fill:#D2D1C8;}
	.st7{fill:#975B40;}
</style>
<rect class="st0" width="1024" height="864"/>
<g>
	<g>
		<g>
			<g>
				<!--<g>
					<path class="st0" d="M274.3,977.8c-2.9-2.2-6.7-3.3-11.2-3.3h-5.8v25.6h5.6c4.6,0,8.4-1.1,11.3-3.3c2.9-2.2,4.4-5.4,4.4-9.6
						C278.7,983.1,277.3,979.9,274.3,977.8z M274.2,991.9c-0.7,1.2-1.7,2.3-2.9,3.1c-1.2,0.8-2.6,1.3-4.2,1.7
						c-1.6,0.3-3.3,0.5-5.1,0.5h-1.2v-19.7h1.2c1.9,0,3.6,0.2,5.1,0.5c1.5,0.3,2.9,0.9,4.2,1.6s2.2,1.8,2.9,3c0.7,1.3,1,2.9,1,4.7
						C275.3,989.1,274.9,990.7,274.2,991.9z"/>
					<path class="st0" d="M297,992.1c0-2.5-0.7-4.5-2.1-6.1c-1.4-1.6-3.4-2.4-6-2.4c-2.7,0-4.8,0.8-6.2,2.4
						c-1.5,1.6-2.2,3.7-2.2,6.2c0,2.4,0.8,4.4,2.3,6c1.5,1.6,3.6,2.4,6.2,2.4c1.7,0,3.3-0.4,4.7-1.2c1.4-0.8,2.5-1.8,3.4-3.2
						l-2.8-1.4c-0.7,1-1.4,1.8-2.2,2.3c-0.8,0.5-1.8,0.8-3,0.8c-1.5,0-2.8-0.5-3.7-1.6c-0.9-1-1.4-2.3-1.5-3.7H297V992.1z
						 M284,990.3c0.1-0.6,0.3-1.1,0.6-1.6c0.3-0.5,0.6-0.9,1.1-1.3c0.4-0.4,0.9-0.6,1.5-0.8s1.1-0.3,1.8-0.3c1.3,0,2.4,0.4,3.2,1.1
						c0.8,0.7,1.3,1.7,1.5,2.9H284z"/>
					<path class="st0" d="M309.8,992.6c-0.7-0.7-1.7-1.3-2.9-1.8c-0.1,0-0.2-0.1-0.3-0.1c-0.1,0-0.3-0.1-0.5-0.2
						c-0.4-0.2-0.7-0.3-0.8-0.4c-0.2-0.1-0.4-0.2-0.8-0.3c-0.5-0.2-0.9-0.5-1.2-0.8c-0.3-0.3-0.4-0.6-0.4-1c0-0.4,0.2-0.8,0.5-1.1
						c0.4-0.3,0.8-0.5,1.3-0.5c1,0,1.7,0.5,2.2,1.4l2.7-1.3c-1-1.9-2.6-2.8-4.7-2.8c-1.4,0-2.6,0.5-3.6,1.4c-1,0.9-1.5,2-1.5,3.3
						c0,0.5,0.1,0.9,0.2,1.3c0.1,0.4,0.3,0.7,0.6,1c0.3,0.3,0.6,0.6,1,0.9c0.4,0.3,0.9,0.5,1.5,0.8l3.2,1.6c0.6,0.4,1,0.8,1.1,1.3
						c0.1,0.5,0.1,0.9-0.1,1.3c-0.2,0.4-0.5,0.7-1,1c-0.4,0.3-0.9,0.4-1.4,0.4c-1.3,0-2.3-0.7-3.1-2l-2.8,1.2c0.2,0.5,0.5,1,0.9,1.5
						c0.4,0.4,0.9,0.8,1.4,1.1c0.5,0.3,1.1,0.6,1.7,0.7c0.6,0.2,1.3,0.3,1.9,0.3c1.6,0,3-0.5,4.2-1.5c1.2-1,1.8-2.3,1.8-3.8
						C310.8,994.2,310.5,993.3,309.8,992.6z"/>
					<path class="st0" d="M318.1,975.4c-0.4-0.4-1-0.6-1.6-0.6c-0.6,0-1.2,0.2-1.6,0.6c-0.4,0.4-0.7,0.9-0.7,1.5
						c0,0.6,0.2,1.1,0.7,1.5s1,0.6,1.6,0.6c0.6,0,1.2-0.2,1.6-0.6s0.7-0.9,0.7-1.5C318.8,976.3,318.5,975.8,318.1,975.4z
						 M314.8,984.2v15.9h3.3v-15.9H314.8z"/>
					<path class="st0" d="M336.3,984.2v2.7h-0.1c-1.5-2.1-3.5-3.2-6-3.2c-2.4,0-4.4,0.8-5.9,2.5c-1.5,1.6-2.3,3.6-2.3,5.8
						c0,2.4,0.7,4.4,2.2,6.1c1.5,1.7,3.5,2.5,6.1,2.5c1.2,0,2.3-0.3,3.3-0.8c1-0.5,1.9-1.3,2.6-2.2h0.1v3c0,1.8-0.3,3.3-1,4.3
						c-0.7,1-2,1.5-3.9,1.5c-1.5,0-2.8-0.4-3.8-1.2c-1-0.8-1.4-1.9-1.4-3.3h-3.3c0,2.2,0.8,4,2.4,5.2c1.5,1.3,3.5,1.9,6,1.9
						c3.2,0,5.3-0.8,6.6-2.4c1.2-1.7,1.9-4,1.9-7v-15.6H336.3z M335,996.2c-1,1.1-2.3,1.7-4.1,1.7c-1.7,0-3-0.6-4-1.7
						c-1-1.1-1.5-2.5-1.5-4.1c0-1.6,0.5-2.9,1.5-4c1-1.1,2.3-1.7,4-1.7c1.8,0,3.1,0.6,4.1,1.7c1,1.1,1.5,2.4,1.5,4
						C336.5,993.7,336,995.1,335,996.2z"/>
					<path class="st0" d="M358.4,987.7c-0.2-0.8-0.6-1.6-1-2.1c-0.5-0.6-1.1-1-1.9-1.4c-0.8-0.3-1.8-0.5-2.9-0.5
						c-1.1,0-2.1,0.2-3.1,0.7c-0.9,0.5-1.7,1.1-2.1,1.9h-0.1v-2.1H344v15.9h3.3v-8.8c0-0.2,0-0.4,0-0.6c0-0.3,0.1-0.5,0.1-0.8
						c0-0.2,0.1-0.5,0.2-0.8c0.1-0.2,0.1-0.5,0.2-0.6c0.2-0.3,0.4-0.6,0.5-0.8c0.2-0.2,0.4-0.5,0.7-0.7c0.3-0.2,0.6-0.3,1-0.4
						c0.4-0.1,0.9-0.2,1.4-0.2c1.6,0,2.6,0.4,3.1,1.1c0.5,0.7,0.7,1.8,0.7,3.4v9.1h3.3v-9.4C358.7,989.5,358.6,988.5,358.4,987.7z"
						/>
					<path class="st0" d="M389,986.2c-1.5-1.6-3.5-2.5-5.9-2.5c-2.5,0-4.5,1-6,3.1H377v-16.2h-3.3v29.4h3.3v-2.5h0.1
						c0.7,1,1.5,1.7,2.6,2.2c1,0.5,2.1,0.8,3.3,0.8c2.6,0,4.6-0.8,6.1-2.5c1.5-1.7,2.2-3.7,2.2-6.1
						C391.3,989.7,390.5,987.8,389,986.2z M386.4,996.2c-1,1.1-2.4,1.7-4.1,1.7c-1.7,0-3-0.6-4-1.7c-1-1.1-1.5-2.5-1.5-4.1
						c0-1.6,0.5-2.9,1.5-4c1-1.1,2.3-1.7,4-1.7c1.8,0,3.1,0.6,4.1,1.7c1,1.1,1.5,2.4,1.5,4C388,993.7,387.5,995.1,386.4,996.2z"/>
					<path class="st0" d="M406.9,984.2l-5.4,10.1l-5.8-10.1h-3.9l7.9,13.2l-6.8,11.8h3.8l14-25H406.9z"/>
					<path class="st0" d="M433.8,973.4l-13.3,26.6h3.7l3.2-6.4h12.8l3.2,6.4h3.7L433.8,973.4z M428.9,990.7l5-10.3l5,10.3H428.9z"/>
					<path class="st0" d="M449.2,970.6v29.4h3.3v-29.4H449.2z"/>
					<path class="st0" d="M457.4,970.6v29.4h3.3v-29.4H457.4z"/>
					<path class="st0" d="M465.3,987.9v2.5h8.1v-2.5H465.3z"/>
					<path class="st0" d="M481.8,976.3c0-0.2,0.1-0.6,0.1-1.1c0.1-0.6,0.3-1.1,0.7-1.5c0.3-0.4,0.8-0.6,1.6-0.6
						c0.4,0,1.2,0.2,2.2,0.6v-3.1c-0.7-0.3-1.5-0.4-2.3-0.4c-3.7,0-5.6,2.1-5.6,6.2v7.7h-1.5v2.9h1.5v13h3.3v-13h4.6v-2.9h-4.6v-6.8
						C481.7,976.9,481.8,976.6,481.8,976.3z"/>
					<path class="st0" d="M496.3,983.7c-1.1,0-2.1,0.3-2.9,0.8c-0.8,0.5-1.4,1.3-1.8,2.2h-0.1v-2.6h-3.3v15.9h3.3v-7.8
						c0-0.7,0-1.4,0.1-2c0.1-0.6,0.3-1.2,0.5-1.7c0.6-1.3,1.7-1.9,3.4-1.9c0.8,0,1.5,0.2,2,0.7l1.5-2.8
						C498.1,984,497.2,983.7,496.3,983.7z"/>
					<path class="st0" d="M516.1,992.1c0-2.5-0.7-4.5-2.1-6.1c-1.4-1.6-3.4-2.4-6-2.4c-2.7,0-4.8,0.8-6.2,2.4
						c-1.5,1.6-2.2,3.7-2.2,6.2c0,2.4,0.8,4.4,2.3,6c1.6,1.6,3.6,2.4,6.2,2.4c1.7,0,3.3-0.4,4.7-1.2c1.4-0.8,2.5-1.8,3.3-3.2
						l-2.8-1.4c-0.7,1-1.4,1.8-2.2,2.3c-0.8,0.5-1.8,0.8-3,0.8c-1.5,0-2.8-0.5-3.7-1.6c-0.9-1-1.4-2.3-1.5-3.7h13.2V992.1z
						 M503.1,990.3c0.1-0.6,0.3-1.1,0.6-1.6c0.3-0.5,0.6-0.9,1.1-1.3c0.4-0.4,0.9-0.6,1.5-0.8c0.6-0.2,1.2-0.3,1.8-0.3
						c1.3,0,2.4,0.4,3.2,1.1c0.8,0.7,1.3,1.7,1.5,2.9H503.1z"/>
					<path class="st0" d="M534.1,992.1c0-2.5-0.7-4.5-2.1-6.1c-1.4-1.6-3.4-2.4-6-2.4c-2.7,0-4.8,0.8-6.2,2.4
						c-1.5,1.6-2.2,3.7-2.2,6.2c0,2.4,0.8,4.4,2.3,6c1.5,1.6,3.6,2.4,6.2,2.4c1.7,0,3.3-0.4,4.7-1.2c1.4-0.8,2.5-1.8,3.3-3.2
						l-2.8-1.4c-0.7,1-1.4,1.8-2.2,2.3c-0.8,0.5-1.8,0.8-3,0.8c-1.5,0-2.8-0.5-3.7-1.6c-0.9-1-1.4-2.3-1.5-3.7h13.2V992.1z
						 M521.1,990.3c0.1-0.6,0.3-1.1,0.6-1.6c0.3-0.5,0.6-0.9,1.1-1.3c0.4-0.4,0.9-0.6,1.5-0.8c0.6-0.2,1.1-0.3,1.8-0.3
						c1.3,0,2.4,0.4,3.2,1.1c0.8,0.7,1.3,1.7,1.5,2.9H521.1z"/>
					<path class="st0" d="M536.8,987.9v2.5h8.1v-2.5H536.8z"/>
					<path class="st0" d="M562.1,970.6v16.2H562c-1.5-2.1-3.5-3.1-6-3.1c-2.4,0-4.4,0.8-5.9,2.5c-1.5,1.6-2.2,3.6-2.2,5.8
						c0,2.4,0.7,4.4,2.2,6.1c1.5,1.7,3.5,2.5,6.1,2.5c1.2,0,2.3-0.3,3.3-0.8c1-0.5,1.9-1.3,2.6-2.2h0.1v2.5h3.3v-29.4H562.1z
						 M560.8,996.2c-1,1.1-2.3,1.7-4.1,1.7c-1.7,0-3-0.6-4-1.7c-1-1.1-1.5-2.5-1.5-4.1c0-1.6,0.5-2.9,1.5-4c1-1.1,2.3-1.7,4-1.7
						c1.8,0,3.1,0.6,4.1,1.7c1,1.1,1.5,2.4,1.5,4C562.3,993.7,561.8,995.1,560.8,996.2z"/>
					<path class="st0" d="M584,986.2c-1.8-1.6-4-2.4-6.5-2.4c-2.6,0-4.8,0.8-6.6,2.4c-1.8,1.6-2.7,3.6-2.7,6c0,2.4,0.9,4.4,2.7,6
						c1.8,1.6,4,2.5,6.6,2.5c2.6,0,4.8-0.8,6.5-2.5c1.8-1.6,2.7-3.6,2.7-6C586.7,989.8,585.8,987.8,584,986.2z M581.6,996
						c-1.2,1.1-2.5,1.6-4.2,1.6c-1.7,0-3-0.5-4.2-1.6c-1.2-1.1-1.7-2.4-1.7-3.9c0-1.5,0.6-2.8,1.7-3.9c1.1-1.1,2.5-1.6,4.2-1.6
						c1.6,0,3,0.5,4.2,1.6c1.2,1.1,1.7,2.4,1.7,3.9C583.4,993.6,582.8,994.9,581.6,996z"/>
					<path class="st0" d="M610.8,984.2l-5,10.1l-5.1-11l-5.1,11l-5-10.1h-3.8l8.8,16.4l5.1-10.6l5.1,10.6l8.8-16.4H610.8z"/>
					<path class="st0" d="M630.7,987.7c-0.2-0.8-0.5-1.6-1-2.1c-0.5-0.6-1.1-1-1.9-1.4c-0.8-0.3-1.8-0.5-2.9-0.5
						c-1.1,0-2.1,0.2-3.1,0.7c-0.9,0.5-1.6,1.1-2.1,1.9h-0.1v-2.1h-3.3v15.9h3.3v-8.8c0-0.2,0-0.4,0-0.6c0-0.3,0.1-0.5,0.1-0.8
						c0-0.2,0.1-0.5,0.2-0.8c0.1-0.2,0.1-0.5,0.2-0.6c0.2-0.3,0.4-0.6,0.6-0.8c0.2-0.2,0.4-0.5,0.7-0.7c0.3-0.2,0.6-0.3,1-0.4
						c0.4-0.1,0.9-0.2,1.5-0.2c1.5,0,2.6,0.4,3.1,1.1c0.5,0.7,0.7,1.8,0.7,3.4v9.1h3.3v-9.4C631,989.5,630.9,988.5,630.7,987.7z"/>
					<path class="st0" d="M635.7,970.6v29.4h3.3v-29.4H635.7z"/>
					<path class="st0" d="M658,986.2c-1.8-1.6-4-2.4-6.5-2.4c-2.6,0-4.8,0.8-6.6,2.4c-1.8,1.6-2.7,3.6-2.7,6c0,2.4,0.9,4.4,2.7,6
						c1.8,1.6,4,2.5,6.6,2.5c2.6,0,4.8-0.8,6.5-2.5c1.8-1.6,2.7-3.6,2.7-6C660.7,989.8,659.8,987.8,658,986.2z M655.7,996
						c-1.2,1.1-2.6,1.6-4.2,1.6c-1.7,0-3-0.5-4.2-1.6c-1.2-1.1-1.7-2.4-1.7-3.9c0-1.5,0.6-2.8,1.7-3.9c1.1-1.1,2.5-1.6,4.2-1.6
						c1.6,0,3,0.5,4.2,1.6c1.1,1.1,1.7,2.4,1.7,3.9C657.4,993.6,656.8,994.9,655.7,996z"/>
					<path class="st0" d="M676.6,984.2v2.6h-0.1c-1.5-2.1-3.5-3.1-6-3.1c-2.4,0-4.4,0.8-5.9,2.5c-1.5,1.6-2.2,3.6-2.2,5.8
						c0,2.4,0.7,4.4,2.2,6.1c1.5,1.7,3.5,2.5,6.1,2.5c2.4,0,4.4-1,5.9-3h0.1v2.5h3.3v-15.9H676.6z M675.3,996.2
						c-1,1.1-2.3,1.7-4.1,1.7c-1.7,0-3-0.6-4-1.7c-1-1.1-1.5-2.5-1.5-4.1c0-1.6,0.5-2.9,1.5-4c1-1.1,2.3-1.7,4-1.7
						c1.8,0,3.1,0.6,4.1,1.7c1,1.1,1.5,2.4,1.5,4C676.8,993.7,676.3,995.1,675.3,996.2z"/>
					<path class="st0" d="M697.2,970.6v16.2h-0.1c-1.5-2.1-3.5-3.1-6-3.1c-2.4,0-4.4,0.8-5.9,2.5c-1.5,1.6-2.3,3.6-2.3,5.8
						c0,2.4,0.7,4.4,2.2,6.1c1.5,1.7,3.5,2.5,6.1,2.5c1.2,0,2.3-0.3,3.3-0.8c1-0.5,1.9-1.3,2.6-2.2h0.1v2.5h3.3v-29.4H697.2z
						 M695.8,996.2c-1,1.1-2.3,1.7-4.1,1.7c-1.7,0-3-0.6-4-1.7c-1-1.1-1.5-2.5-1.5-4.1c0-1.6,0.5-2.9,1.5-4c1-1.1,2.3-1.7,4-1.7
						c1.8,0,3.1,0.6,4.1,1.7c1,1.1,1.5,2.4,1.5,4C697.4,993.7,696.9,995.1,695.8,996.2z"/>
					<path class="st0" d="M709.4,997.2c-0.4-0.4-0.9-0.6-1.5-0.6c-0.6,0-1.1,0.2-1.5,0.6c-0.4,0.4-0.6,0.8-0.6,1.4
						c0,0.6,0.2,1,0.6,1.4c0.4,0.4,0.9,0.6,1.5,0.6c0.6,0,1.1-0.2,1.5-0.6c0.4-0.4,0.6-0.8,0.6-1.4
						C710,998.1,709.8,997.6,709.4,997.2z"/>
					<path class="st0" d="M723.3,986.6c1.9,0,3.6,0.7,5,2.1v-3.9c-1.3-0.7-2.8-1.1-4.6-1.1c-2.7,0-5,0.8-6.8,2.4
						c-1.8,1.6-2.7,3.7-2.7,6.1c0,2.4,0.9,4.4,2.7,5.9c1.8,1.6,4,2.4,6.6,2.4c1.8,0,3.3-0.4,4.8-1.1v-3.9c-1.4,1.4-3,2.1-4.7,2.1
						c-1.7,0-3.2-0.5-4.3-1.6c-1.1-1-1.7-2.4-1.7-4c0-1.5,0.6-2.8,1.7-3.9C720.3,987.1,721.7,986.6,723.3,986.6z"/>
					<path class="st0" d="M746,986.2c-1.8-1.6-4-2.4-6.5-2.4c-2.6,0-4.8,0.8-6.6,2.4c-1.8,1.6-2.7,3.6-2.7,6c0,2.4,0.9,4.4,2.7,6
						c1.8,1.6,4,2.5,6.6,2.5c2.6,0,4.8-0.8,6.5-2.5c1.8-1.6,2.7-3.6,2.7-6C748.7,989.8,747.8,987.8,746,986.2z M743.7,996
						c-1.2,1.1-2.5,1.6-4.2,1.6c-1.7,0-3-0.5-4.2-1.6c-1.2-1.1-1.7-2.4-1.7-3.9c0-1.5,0.6-2.8,1.7-3.9c1.1-1.1,2.5-1.6,4.2-1.6
						c1.6,0,3,0.5,4.2,1.6c1.2,1.1,1.7,2.4,1.7,3.9C745.4,993.6,744.8,994.9,743.7,996z"/>
					<path class="st0" d="M770,983.7c-1.1,0-2.1,0.3-3.1,0.8c-1,0.5-1.7,1.2-2.2,2.1c-1.2-1.9-2.9-2.8-5-2.8c-0.9,0-1.8,0.2-2.6,0.7
						c-0.8,0.5-1.5,1.1-2,1.8H755v-2h-3.3v15.9h3.3v-7.8c0-0.8,0-1.4,0.1-2c0.1-0.6,0.2-1.2,0.4-1.8c0.5-1.3,1.6-2,3.3-2
						c0.6,0,1.1,0.1,1.5,0.4c0.4,0.2,0.7,0.5,0.9,0.8c0.2,0.3,0.4,0.7,0.5,1.3c0.1,0.5,0.2,1,0.2,1.4c0,0.4,0,0.8,0,1.4v8.4h3.3
						v-7.8c0-0.6,0-1.1,0-1.6c0-0.4,0.1-0.9,0.3-1.5c0.2-0.6,0.4-1,0.6-1.4c0.3-0.4,0.6-0.7,1.1-0.9c0.5-0.3,1.1-0.4,1.8-0.4
						c0.7,0,1.3,0.1,1.7,0.4c0.3,0.2,0.6,0.5,0.8,0.8c0.2,0.3,0.3,0.7,0.4,1c0.1,0.4,0.2,0.8,0.2,1.2c0,0.4,0,0.8,0,1.2v9h3.3v-9.5
						C775.7,986,773.8,983.7,770,983.7z"/>
				</g>
				<g>
					<rect x="179.8" y="988.6" class="st0" width="47.1" height="2.1"/>
					<rect x="806.1" y="988.6" class="st0" width="47.1" height="2.1"/>
				</g>-->
			</g>
		</g>
	</g>
</g>
<g>
	<g>
		<g>
			<path class="st2" d="M389.2,626.8c-4,0.3-8.1,0.3-12.2,0.1c-0.5,0-1.1-0.1-1.6-0.1c-4.2-0.3-8.3-1-12.5-1.9
				c-0.5-0.1-1.1-0.2-1.6-0.4c-4.2-1-8.3-2.3-12.5-3.9c-0.5-0.2-1.1-0.4-1.6-0.6c-4.2-1.7-8.3-3.6-12.5-5.9
				c-0.5-0.3-1.1-0.6-1.6-0.9c-4.2-2.3-8.3-4.9-12.5-7.9c-0.5-0.4-1.1-0.7-1.6-1.1c-1.4-1-2.8-2-4.2-3.1c-2.8-2.1-5.6-4.4-8.3-6.8
				c-0.5-0.4-1.1-0.9-1.6-1.4c-4.2-3.7-8.4-7.7-12.5-11.9c-0.5-0.5-1.1-1.1-1.6-1.6c-4.2-4.4-8.4-9.1-12.5-14
				c-0.5-0.6-1.1-1.3-1.6-1.9c-4.2-5.1-8.4-10.5-12.5-16.2c-0.5-0.7-1.1-1.5-1.6-2.2c-1.8-2.6-3.7-5.2-5.5-7.9
				c-2.4-3.5-4.7-7.1-7-10.6c-0.5-0.8-1.1-1.7-1.6-2.5c-4.5-7.1-8.7-14.2-12.5-21c-0.5-0.9-1.1-1.9-1.6-2.8
				c-4.7-8.5-8.9-16.6-12.5-23.9c-0.5-1.1-1.1-2.2-1.6-3.2c-6.2-12.6-10.4-22.5-12.5-27.6c-0.2-0.6-0.4-1.1-0.6-1.5
				c-0.2,1-0.6,2.2-1,3.7c-2.1,8.1-6.3,24-12.2,44.7c-0.5,1.8-1,3.7-1.6,5.6c-3.6,12.7-7.8,27.1-12.5,42.4c-0.5,1.7-1,3.4-1.6,5.1
				c-3.9,12.6-8.1,25.8-12.5,39.3c-0.5,1.6-1,3.2-1.6,4.8c-3.6,10.9-7.4,21.9-11.3,32.9c-0.4,1.1-0.8,2.3-1.2,3.4
				c-0.5,1.5-1.1,2.9-1.6,4.3c-4.2,11.6-8.4,22-12.5,31.3c-0.5,1.2-1.1,2.4-1.6,3.5c-4.3,9.6-8.5,17.7-12.5,24.3
				c-0.5,0.9-1.1,1.7-1.6,2.6c-1.9,3.1-3.8,5.7-5.7,8c-6.8,8.6-11,9.5-12.6,9.5c-0.3,0-0.5,0-0.6-0.1l0.4-1.5c0.1,0,6.4,0.8,18.4-19
				c0.5-0.8,1-1.7,1.6-2.7c3.7-6.3,7.8-14.5,12.5-25c0.5-1.2,1-2.4,1.6-3.6c3.9-9,8-19.5,12.5-32c0.4-1.2,0.9-2.4,1.3-3.6
				c0.1-0.3,0.2-0.5,0.3-0.8c4.4-12.3,8.5-24.6,12.5-36.6c0.5-1.6,1.1-3.2,1.6-4.8c4.5-13.7,8.6-27,12.5-39.6
				c0.5-1.7,1.1-3.5,1.6-5.2c4.7-15.6,8.9-30.1,12.5-42.7c0.5-1.9,1.1-3.8,1.6-5.6c7.4-26.3,11.8-43.7,12.2-45.2c0-0.1,0-0.1,0-0.1
				l0.6-2.4l0.9,2.3c0,0,0,0.1,0.1,0.1c0.5,1.3,4.9,12.3,12.5,28.2c0.5,1.1,1,2.2,1.6,3.3c3.6,7.3,7.7,15.5,12.5,24.2
				c0.5,0.9,1,1.9,1.6,2.9c3.8,6.9,8,14,12.5,21.3c0.5,0.8,1,1.7,1.6,2.5c2.7,4.2,5.4,8.5,8.3,12.7c1.4,2,2.8,4,4.2,6
				c0.5,0.7,1,1.5,1.6,2.2c3.9,5.4,8.1,10.9,12.5,16.4c0.5,0.6,1,1.3,1.6,1.9c4,4.8,8.2,9.6,12.5,14.2c0.5,0.6,1,1.1,1.6,1.7
				c4,4.2,8.2,8.2,12.5,12.1c0.5,0.5,1,0.9,1.6,1.4c4.1,3.5,8.2,6.9,12.5,10c0.5,0.4,1.1,0.8,1.6,1.1c4.1,2.9,8.2,5.6,12.5,8
				c0.5,0.3,1.1,0.6,1.6,0.9c4.1,2.3,8.3,4.3,12.5,6c0.5,0.2,1.1,0.4,1.6,0.6c4.1,1.6,8.3,2.9,12.5,4c0.5,0.1,1.1,0.3,1.6,0.4
				c4.1,0.9,8.3,1.6,12.5,2c0.5,0,1.1,0.1,1.6,0.1c4,0.3,8,0.3,12-0.1L389.2,626.8z"/>
		</g>
		<g>
			<path class="st2" d="M208,441.3v268.2h-1.6V441.4c0-0.1,0-0.1,0-0.1l0.6-2.4l0.9,2.3C208,441.2,208,441.2,208,441.3z"/>
		</g>
		<g>
			<path class="st2" d="M222.1,472.7v236.7h-1.6v-240C221.1,470.5,221.6,471.6,222.1,472.7z"/>
		</g>
		<g>
			<path class="st2" d="M236.2,499.8v199l-1.2,0.3l-0.4,0.1V496.9C235.2,497.9,235.7,498.8,236.2,499.8z"/>
		</g>
		<g>
			<path class="st2" d="M250.3,523.6v172.2l-1.2,0.2l-0.4,0.1V521.1C249.2,521.9,249.8,522.7,250.3,523.6z"/>
		</g>
		<g>
			<path class="st2" d="M264.4,544.6v148.3l-1.2,0.2l-0.4,0.1V542.3C263.3,543.1,263.9,543.8,264.4,544.6z"/>
		</g>
		<g>
			<path class="st2" d="M278.5,562.8v127l-1.2,0.3l-0.4,0.1V560.9C277.4,561.6,277.9,562.2,278.5,562.8z"/>
		</g>
		<g>
			<path class="st2" d="M292.5,578.7v108.2l-1.2,0.2l-0.4,0.1V577C291.5,577.6,292,578.1,292.5,578.7z"/>
		</g>
		<g>
			<path class="st2" d="M194.3,486.6v221.1l-1.5,0.3v1.4h-0.1V492.2C193.3,490.3,193.8,488.4,194.3,486.6z"/>
		</g>
		<g>
			<path class="st2" d="M180.2,534.9v174.5h-1.6V540.1C179.2,538.4,179.7,536.6,180.2,534.9z"/>
		</g>
		<g>
			<path class="st2" d="M166.2,579.7v129.7h-1.6V584.5C165.1,582.9,165.6,581.3,166.2,579.7z"/>
		</g>
		<g>
			<path class="st2" d="M152.1,621.2v88.2h-1.6v-83.8c0.4-1.2,0.9-2.4,1.3-3.6C151.9,621.7,152,621.5,152.1,621.2z"/>
		</g>
		<g>
			<path class="st2" d="M138,657.5v51.9h-1.6v-48.3C136.9,660,137.5,658.8,138,657.5z"/>
		</g>
		<g>
			<path class="st2" d="M123.9,686.2v23.2h-1.6v-20.6C122.8,688,123.4,687.1,123.9,686.2z"/>
		</g>
		<g>
			<path class="st2" d="M306.6,592.1v91.8l-1.2,0.2l-0.4,0.1v-93.5C305.6,591.2,306.1,591.7,306.6,592.1z"/>
		</g>
		<g>
			<path class="st2" d="M320.7,603.3v77.6l-1.2,0.3l-0.4,0.1v-79.1C319.7,602.6,320.2,602.9,320.7,603.3z"/>
		</g>
		<g>
			<path class="st2" d="M334.8,612.2V678l-1.6,0.3v-67C333.7,611.6,334.3,611.9,334.8,612.2z"/>
		</g>
		<g>
			<path class="st2" d="M348.9,618.8V675l-1.6,0.3v-57.1C347.8,618.4,348.4,618.6,348.9,618.8z"/>
		</g>
		<g>
			<path class="st2" d="M363,623.2V672l-1.6,0.3v-49.5C361.9,622.9,362.4,623.1,363,623.2z"/>
		</g>
		<g>
			<path class="st2" d="M377,625.3V669l-1.6,0.3v-44.2C376,625.2,376.5,625.2,377,625.3z"/>
		</g>
	</g>
	<g>
		<g>
			<path class="st2" d="M1001.4,462.7c-8.6,0.6-17.2,0.7-25.8,0.1c-1.1-0.1-2.2-0.1-3.3-0.2c-8.8-0.7-17.7-2.1-26.5-4
				c-1.1-0.2-2.2-0.5-3.3-0.8c-8.8-2.1-17.7-4.9-26.5-8.2c-1.1-0.4-2.2-0.8-3.3-1.3c-8.8-3.5-17.7-7.7-26.5-12.4
				c-1.1-0.6-2.2-1.2-3.3-1.8c-8.9-4.9-17.7-10.5-26.5-16.7c-1.1-0.8-2.2-1.6-3.3-2.4c-2.9-2.1-5.9-4.3-8.8-6.6
				c-5.9-4.5-11.8-9.3-17.7-14.4c-1.1-0.9-2.2-1.9-3.3-2.9c-8.9-7.8-17.7-16.3-26.5-25.3c-1.1-1.1-2.2-2.3-3.3-3.5
				c-8.9-9.3-17.7-19.2-26.5-29.8c-1.1-1.3-2.2-2.7-3.3-4c-8.9-10.8-17.7-22.3-26.5-34.4c-1.1-1.5-2.2-3.1-3.3-4.6
				c-3.9-5.5-7.8-11-11.7-16.7c-5.1-7.5-10.1-15.1-14.9-22.6c-1.1-1.8-2.2-3.5-3.3-5.3c-9.5-15.1-18.4-30.1-26.5-44.6
				c-1.1-2-2.2-4-3.3-6c-10-18-18.9-35.2-26.5-50.6c-1.1-2.3-2.3-4.6-3.3-6.8c-5.7-11.8-10.7-22.5-14.8-31.6
				c-1.9-4.2-3.6-8.1-5.2-11.7c-2.7-6.3-4.9-11.4-6.5-15.3c-0.5-1.2-0.9-2.3-1.3-3.2c-0.5,2-1.2,4.7-2,7.9c-0.6,2.4-1.3,5.2-2.2,8.2
				c-0.7,2.5-1.4,5.2-2.1,8.2c-5,18.8-12.2,45.8-21.5,78.4c-1.1,3.9-2.2,7.8-3.3,11.8c-0.2,0.8-0.5,1.7-0.7,2.5
				c-2.4,8.4-4.9,17.1-7.5,26.1c-1.5,5.2-3.1,10.5-4.7,15.9c-0.4,1.5-0.9,2.9-1.3,4.4c-3.9,13.1-7.9,26.7-12.2,40.7
				c0,0.1-0.1,0.2-0.1,0.3c-1.1,3.5-2.2,7.1-3.3,10.6c0,0.1-0.1,0.2-0.1,0.3c-2.7,8.7-5.4,17.6-8.3,26.5c-1.5,4.7-3,9.5-4.5,14.2
				c-0.5,1.5-1,3-1.4,4.5c-0.8,2.5-1.6,4.9-2.4,7.4c-3.2,10-6.5,20.2-9.9,30.4c0,0.1-0.1,0.2-0.1,0.3c-1.1,3.3-2.2,6.5-3.3,9.8
				c0,0.1-0.1,0.2-0.1,0.3c-4,12-8,24-12.2,36.1c-1.2,3.5-2.4,7-3.6,10.5c-0.5,1.3-0.9,2.7-1.4,4c-2.2,6.4-4.5,12.8-6.8,19.2
				c-0.8,2.3-1.6,4.6-2.5,6.9c0,0.1-0.1,0.2-0.1,0.2c-1.1,3-2.2,6-3.3,9c0,0.1-0.1,0.2-0.1,0.2c-2.1,5.6-4.1,11.1-6.2,16.5
				c-2.9,7.7-5.9,15.1-8.8,22.3c-0.1,0.4-0.3,0.8-0.5,1.2c-3.5,8.5-6.9,16.7-10.3,24.4c-0.3,0.7-0.6,1.3-0.8,1.9
				c-0.3,0.8-0.7,1.5-1,2.3c-0.5,1.1-1,2.2-1.5,3.3c-0.3,0.6-0.6,1.3-0.8,1.9c-8.9,19.6-17.4,36.4-25.7,50.1c-0.3,0.5-0.6,1-0.9,1.4
				c-0.8,1.4-1.7,2.7-2.5,4c-0.3,0.5-0.6,0.9-0.9,1.4c-0.3,0.5-0.7,1.1-1,1.6c-3.7,5.8-7.4,11-11,15.4c-5.3,6.7-9.9,11.2-13.7,14.2
				c-1.2,0.9-2.3,1.7-3.3,2.4c-0.3,0.2-0.5,0.3-0.8,0.5c-4.3,2.7-7.3,3.1-8.8,3.1c-0.7,0-1.1-0.1-1.3-0.1l0.1-0.4l0.7-2.9
				c0.1,0,3.5,0.5,10.1-4.4c1-0.8,2.1-1.7,3.3-2.7c5.1-4.5,11.6-11.8,19.6-23.6c1.9-2.9,4-6.1,6.1-9.5c0.3-0.5,0.6-0.9,0.9-1.4
				c0.8-1.4,1.6-2.8,2.5-4.2c0.3-0.5,0.6-1,0.9-1.5c7.6-13.2,16.1-30,25.7-51.6c0.3-0.6,0.6-1.3,0.8-1.9c0.5-1.1,1-2.2,1.5-3.4
				c0.3-0.8,0.7-1.5,1-2.3c0.3-0.7,0.6-1.3,0.8-2c3.3-7.8,6.8-16.1,10.3-25c0.2-0.4,0.3-0.8,0.5-1.2c2.9-7.2,5.8-14.8,8.8-22.8
				c2-5.4,4.1-11,6.2-16.8c0-0.1,0.1-0.2,0.1-0.2c0.9-2.5,1.8-4.9,2.7-7.4c0.2-0.6,0.4-1.1,0.6-1.7c0-0.1,0.1-0.2,0.1-0.3
				c3.1-8.8,6.2-17.6,9.2-26.4c0.5-1.4,0.9-2.7,1.4-4.1c1.2-3.5,2.4-7.1,3.6-10.6c4.2-12.2,8.2-24.3,12.2-36.4
				c0-0.1,0.1-0.2,0.1-0.3c1.1-3.3,2.2-6.6,3.3-9.9c0-0.1,0.1-0.2,0.1-0.3c2.2-6.6,4.3-13.2,6.4-19.7c2-6.2,4-12.4,5.9-18.5
				c0.4-1.2,0.7-2.4,1.1-3.5c0.4-1.4,0.9-2.8,1.3-4.2c4.1-12.9,8-25.6,11.8-37.9c0-0.1,0.1-0.2,0.1-0.3c1.1-3.6,2.2-7.2,3.3-10.7
				c0-0.1,0.1-0.2,0.1-0.3c3.4-11.3,6.7-22.4,9.9-33.1c0.4-1.5,0.9-3,1.3-4.4c1.2-4,2.4-8,3.5-11.9c0.7-2.5,1.5-5,2.2-7.5
				c0.5-1.7,1-3.3,1.4-5c1.3-4.6,2.7-9.2,3.9-13.7c1.4-5,2.8-10,4.2-14.8c1.1-4,2.3-8,3.3-11.8c9.8-35.2,17.2-62.8,21.5-79.2
				c0.8-3.2,1.5-5.9,2.1-8.3c1.2-4.7,1.9-7.6,2.2-8.5c0-0.1,0-0.2,0.1-0.2l1.3-5.1l1.9,4.9c0,0,0,0.1,0.1,0.3
				c0.5,1.3,2.7,6.8,6.5,15.7c1.5,3.5,3.2,7.5,5.2,11.9c4,9,8.9,19.9,14.8,32.1c1.1,2.3,2.2,4.6,3.3,6.9
				c7.5,15.5,16.4,32.9,26.5,51.3c1.1,2,2.2,4,3.3,6.1c8.1,14.6,17,29.8,26.5,45.2c1.1,1.8,2.2,3.6,3.3,5.3c5.7,9,11.5,18,17.7,27
				c2.9,4.2,5.8,8.5,8.9,12.8c1.1,1.6,2.2,3.1,3.3,4.7c8.3,11.5,17.1,23.2,26.5,34.7c1.1,1.4,2.2,2.7,3.3,4.1
				c8.4,10.2,17.3,20.3,26.5,30.1c1.1,1.2,2.2,2.3,3.3,3.5c8.5,8.9,17.4,17.4,26.5,25.6c1.1,1,2.2,2,3.3,2.9
				c8.6,7.5,17.4,14.6,26.5,21.3c1.1,0.8,2.2,1.6,3.3,2.4c8.6,6.2,17.5,11.8,26.5,17c1.1,0.6,2.2,1.2,3.3,1.9
				c8.7,4.8,17.5,9,26.5,12.7c1.1,0.5,2.2,0.9,3.3,1.3c8.7,3.4,17.5,6.2,26.5,8.5c1.1,0.3,2.2,0.5,3.3,0.8c8.7,2,17.5,3.4,26.5,4.2
				c1.1,0.1,2.2,0.2,3.3,0.2c8.4,0.6,16.9,0.5,25.5-0.1L1001.4,462.7z"/>
		</g>
		<g>
			<path class="st2" d="M617.2,69.3V638h-3.3V69.5c0-0.1,0-0.2,0.1-0.2l1.3-5.1l1.9,4.9C617.1,69.1,617.1,69.2,617.2,69.3z"/>
		</g>
		<g>
			<path class="st2" d="M647,136v502h-3.3V129.1C644.8,131.4,645.9,133.7,647,136z"/>
		</g>
		<g>
			<path class="st2" d="M676.9,193.4v412.2l-2.5,0.5l-0.8,0.2v-419C674.7,189.3,675.8,191.3,676.9,193.4z"/>
		</g>
		<g>
			<path class="st2" d="M706.8,243.9v355.4l-2.5,0.5l-0.8,0.2V238.5C704.6,240.3,705.7,242.1,706.8,243.9z"/>
		</g>
		<g>
			<path class="st2" d="M736.7,288.3V593l-2.5,0.5l-0.8,0.2v-310C734.4,285.2,735.5,286.8,736.7,288.3z"/>
		</g>
		<g>
			<path class="st2" d="M766.5,327.1v259.5l-2.5,0.5l-0.9,0.2V323.1C764.3,324.4,765.4,325.8,766.5,327.1z"/>
		</g>
		<g>
			<path class="st2" d="M796.4,360.7v219.6l-2.5,0.5l-0.9,0.2V357.2C794.2,358.4,795.3,359.5,796.4,360.7z"/>
		</g>
		<g>
			<path class="st2" d="M588.1,165.4v459l-3.2,0.7l-0.1,0V177.2C585.9,173.2,587,169.2,588.1,165.4z"/>
		</g>
		<g>
			<path class="st2" d="M558.2,267.9v362.8l-3.3,0.7l-0.1,0V278.9c0-0.1,0.1-0.2,0.1-0.3C556,275,557.1,271.4,558.2,267.9z"/>
		</g>
		<g>
			<path class="st2" d="M528.3,363V637l-3.3,0.7v0.3H525V373.2c0-0.1,0.1-0.2,0.1-0.3C526.2,369.6,527.3,366.3,528.3,363z"/>
		</g>
		<g>
			<path class="st2" d="M498.5,450.9V638h-3.3V460.2c0.9-2.5,1.8-5.1,2.8-7.7C498.1,452,498.3,451.4,498.5,450.9z"/>
		</g>
		<g>
			<path class="st2" d="M468.6,528V638h-3.3V535.7C466.4,533.2,467.5,530.6,468.6,528z"/>
		</g>
		<g>
			<path class="st2" d="M438.7,588.7V638h-3.3v-43.7C436.5,592.6,437.6,590.7,438.7,588.7z"/>
		</g>
		<g>
			<path class="st2" d="M826.3,389.3V574l-2.5,0.5l-0.9,0.2V386.3C824,387.3,825.1,388.3,826.3,389.3z"/>
		</g>
		<g>
			<path class="st2" d="M856.1,412.9v154.8l-2.5,0.5l-0.8,0.2V410.5C853.9,411.3,855,412.2,856.1,412.9z"/>
		</g>
		<g>
			<path class="st2" d="M886,431.8v129.6l-3.3,0.7V429.9C883.8,430.6,884.9,431.2,886,431.8z"/>
		</g>
		<g>
			<path class="st2" d="M915.9,445.8v109.2l-3.3,0.7V444.5C913.6,445,914.8,445.4,915.9,445.8z"/>
		</g>
		<g>
			<path class="st2" d="M945.7,455.1v3.5c-1.1-0.2-2.2-0.5-3.3-0.8v-3.5C943.5,454.6,944.6,454.9,945.7,455.1z"/>
		</g>
		<g>
			<path class="st2" d="M975.6,459.5v3.4c-1.1-0.1-2.2-0.1-3.3-0.2v-3.4C973.4,459.4,974.5,459.4,975.6,459.5z"/>
		</g>
	</g>
	<g>
		<path class="st3" d="M557.1,75.4L557.1,75.4c-2,0-3.7-1.7-3.7-3.7V56.6c0-2,1.7-3.7,3.7-3.7l0,0c2,0,3.7,1.7,3.7,3.7v15.1
			C560.8,73.7,559.2,75.4,557.1,75.4z"/>
		<g>
			<g>
				<rect x="518.2" y="62.7" class="st3" width="77.1" height="26.2"/>
				<rect x="523.9" y="66.8" class="st2" width="1.7" height="18"/>
				<rect x="537" y="66.8" class="st2" width="1.7" height="18"/>
				<rect x="550.2" y="66.8" class="st2" width="1.7" height="18"/>
				<rect x="563.4" y="66.8" class="st2" width="1.7" height="18"/>
				<rect x="576.5" y="66.8" class="st2" width="1.7" height="18"/>
				<rect x="589.7" y="66.8" class="st2" width="1.7" height="18"/>
			</g>
			<g>
				<polygon class="st2" points="520.3,62.6 520.3,91.4 506.4,94.8 503.8,95.5 503.8,62.6 				"/>
				<rect x="502.5" y="62.6" class="st2" width="3.9" height="35.3"/>
			</g>
			<g>
				<polygon class="st2" points="610.5,62.6 610.5,95.5 607.9,94.8 594,91.4 594,62.6 				"/>
				<rect x="607.9" y="62.6" class="st2" width="3.9" height="35.3"/>
			</g>
		</g>
	</g>
	<rect x="614.3" y="40.8" class="st4" width="11" height="25.4"/>
	<g>
		<rect x="609.5" y="57.2" class="st3" width="19.3" height="330.8"/>
		<rect x="609.5" y="57.2" class="st3" width="19.3" height="330.8"/>
		<rect x="623.7" y="57.7" class="st4" width="5.2" height="330.3"/>
		<polygon class="st5" points="609.5,57.2 609.5,388 628.9,388 628.9,387.3 611.7,387.3 611.7,57.2 		"/>
	</g>
	<g>
		<rect x="603.3" y="155.6" class="st3" width="32.6" height="459.4"/>
		<rect x="603.3" y="155.6" class="st3" width="32.6" height="459.4"/>
		<rect x="627.1" y="156.2" class="st4" width="8.8" height="458.8"/>
		<polygon class="st5" points="603.3,155.6 603.3,615 635.9,615 635.9,614 606.9,614 606.9,155.6 		"/>
	</g>
	<g>
		<g>
			<g>
				<g>
					<path class="st2" d="M613.9,777.5H503.2v-91.4h110.7V777.5z M514.3,766.3h88.4v-69.1h-88.4V766.3z"/>
				</g>
				<g>

						<rect x="553" y="668" transform="matrix(0.6319 -0.7751 0.7751 0.6319 -361.9331 702.4648)" class="st2" width="11.1" height="128.5"/>
				</g>
				<g>

						<rect x="494.3" y="726.7" transform="matrix(0.7751 -0.6319 0.6319 0.7751 -337.0604 517.6357)" class="st2" width="128.5" height="11.1"/>
				</g>
			</g>
			<g>
				<g>
					<path class="st2" d="M613.9,696.7H503.2v-91.4h110.7V696.7z M514.3,685.5h88.4v-69.1h-88.4V685.5z"/>
				</g>
				<g>

						<rect x="553" y="587.2" transform="matrix(0.6319 -0.7751 0.7751 0.6319 -299.3163 672.7242)" class="st2" width="11.1" height="128.5"/>
				</g>
				<g>

						<rect x="494.3" y="645.9" transform="matrix(0.7751 -0.6319 0.6319 0.7751 -286.0117 499.4634)" class="st2" width="128.5" height="11.1"/>
				</g>
			</g>
		</g>
		<path class="st2" d="M564.6,662.8h-14c-6.6,0-11.9-5.4-11.9-11.9v0c0-6.6,5.4-11.9,11.9-11.9h14c6.6,0,11.9,5.4,11.9,11.9v0
			C576.5,657.4,571.2,662.8,564.6,662.8z"/>
		<path class="st2" d="M564.6,744h-14c-6.6,0-11.9-5.4-11.9-11.9l0,0c0-6.6,5.4-11.9,11.9-11.9h14c6.6,0,11.9,5.4,11.9,11.9l0,0
			C576.5,738.6,571.2,744,564.6,744z"/>
	</g>
	<g>
		<g>
			<rect x="524.2" y="441.7" class="st3" width="67.2" height="26.2"/>
			<rect x="529.2" y="445.9" class="st2" width="1.4" height="18"/>
			<rect x="540.7" y="445.9" class="st2" width="1.4" height="18"/>
			<rect x="552.2" y="445.9" class="st2" width="1.4" height="18"/>
			<rect x="563.7" y="445.9" class="st2" width="1.4" height="18"/>
			<rect x="575.1" y="445.9" class="st2" width="1.4" height="18"/>
			<rect x="586.6" y="445.9" class="st2" width="1.4" height="18"/>
		</g>
		<g>
			<polygon class="st2" points="511.7,474.5 511.7,435 526.1,439.1 526.1,470.4 			"/>
			<rect x="510.6" y="432.6" class="st2" width="3.4" height="44.3"/>
		</g>
		<g>
			<polygon class="st2" points="604.8,474.5 604.8,435 590.3,439.1 590.3,470.4 			"/>
			
				<rect x="602.5" y="432.6" transform="matrix(-1 -4.670276e-11 4.670276e-11 -1 1208.373 909.5505)" class="st2" width="3.4" height="44.3"/>
		</g>
	</g>
	<g>
		<g>
			<rect x="524.2" y="316.9" class="st3" width="67.2" height="26.2"/>
			<rect x="529.2" y="321" class="st2" width="1.4" height="18"/>
			<rect x="540.7" y="321" class="st2" width="1.4" height="18"/>
			<rect x="552.2" y="321" class="st2" width="1.4" height="18"/>
			<rect x="563.7" y="321" class="st2" width="1.4" height="18"/>
			<rect x="575.1" y="321" class="st2" width="1.4" height="18"/>
			<rect x="586.6" y="321" class="st2" width="1.4" height="18"/>
		</g>
		<g>
			<polygon class="st2" points="511.7,349.7 511.7,310.2 526.1,314.3 526.1,345.6 			"/>
			<rect x="510.6" y="307.8" class="st2" width="3.4" height="44.3"/>
		</g>
		<g>
			<polygon class="st2" points="604.8,349.7 604.8,310.2 590.3,314.3 590.3,345.6 			"/>
			
				<rect x="602.5" y="307.8" transform="matrix(-1 -4.697277e-11 4.697277e-11 -1 1208.373 659.8526)" class="st2" width="3.4" height="44.3"/>
		</g>
	</g>
	<g>
		<g>
			<rect x="524.2" y="192" class="st3" width="67.2" height="26.2"/>
			<rect x="529.2" y="196.2" class="st2" width="1.4" height="18"/>
			<rect x="540.7" y="196.2" class="st2" width="1.4" height="18"/>
			<rect x="552.2" y="196.2" class="st2" width="1.4" height="18"/>
			<rect x="563.7" y="196.2" class="st2" width="1.4" height="18"/>
			<rect x="575.1" y="196.2" class="st2" width="1.4" height="18"/>
			<rect x="586.6" y="196.2" class="st2" width="1.4" height="18"/>
		</g>
		<g>
			<polygon class="st2" points="511.7,224.8 511.7,185.3 526.1,189.4 526.1,220.7 			"/>
			<rect x="510.6" y="182.9" class="st2" width="3.4" height="44.3"/>
		</g>
		<g>
			<polygon class="st2" points="604.8,224.8 604.8,185.3 590.3,189.4 590.3,220.7 			"/>
			
				<rect x="602.5" y="182.9" transform="matrix(-1 -4.319313e-11 4.319313e-11 -1 1208.373 410.1547)" class="st2" width="3.4" height="44.3"/>
		</g>
	</g>
	<rect x="603.3" y="295.3" class="st3" width="45.2" height="532.5"/>
	<g>
		<g>
			<path class="st2" d="M333.3,634.8c-4,0.3-8.1,0.3-12.2,0.1c-0.5,0-1.1-0.1-1.6-0.1c-4.2-0.3-8.3-1-12.5-1.9
				c-0.5-0.1-1.1-0.2-1.6-0.4c-4.2-1-8.3-2.3-12.5-3.9c-0.5-0.2-1.1-0.4-1.6-0.6c-4.2-1.7-8.3-3.6-12.5-5.9
				c-0.5-0.3-1.1-0.6-1.6-0.9c-4.2-2.3-8.3-4.9-12.5-7.9c-0.5-0.4-1.1-0.7-1.6-1.1c-1.4-1-2.8-2-4.2-3.1c-2.8-2.1-5.6-4.4-8.3-6.8
				c-0.5-0.4-1.1-0.9-1.6-1.4c-4.2-3.7-8.4-7.7-12.5-11.9c-0.5-0.5-1.1-1.1-1.6-1.6c-4.2-4.4-8.4-9.1-12.5-14
				c-0.5-0.6-1.1-1.3-1.6-1.9c-4.2-5.1-8.4-10.5-12.5-16.2c-0.5-0.7-1.1-1.5-1.6-2.2c-1.8-2.6-3.7-5.2-5.5-7.9
				c-2.4-3.5-4.7-7.1-7-10.6c-0.5-0.8-1.1-1.7-1.6-2.5c-4.5-7.1-8.7-14.2-12.5-21c-0.5-0.9-1.1-1.9-1.6-2.8
				c-4.7-8.5-8.9-16.6-12.5-23.9c-0.5-1.1-1.1-2.2-1.6-3.2c-6.2-12.6-10.4-22.5-12.5-27.6c-0.2-0.6-0.4-1.1-0.6-1.5
				c-0.2,1-0.6,2.2-1,3.7c-2.1,8.1-6.3,24-12.2,44.7c-0.5,1.8-1,3.7-1.6,5.6c-3.6,12.7-7.8,27.1-12.5,42.4c-0.5,1.7-1,3.4-1.6,5.1
				c-3.9,12.6-8.1,25.8-12.5,39.3c-0.5,1.6-1,3.2-1.6,4.8c-3.6,10.9-7.4,21.9-11.3,32.9c-0.4,1.1-0.8,2.3-1.2,3.4
				c-0.5,1.5-1.1,2.9-1.6,4.3c-4.2,11.6-8.4,22-12.5,31.3c-0.5,1.2-1.1,2.4-1.6,3.5c-4.3,9.6-8.5,17.7-12.5,24.3
				c-0.5,0.9-1.1,1.7-1.6,2.6c-1.9,3.1-3.8,5.7-5.7,8c-6.8,8.6-11,9.5-12.6,9.5c-0.3,0-0.5,0-0.6-0.1l0.4-1.5c0.1,0,6.4,0.8,18.4-19
				c0.5-0.8,1-1.7,1.6-2.7c3.7-6.3,7.8-14.5,12.5-25c0.5-1.2,1-2.4,1.6-3.6c3.9-9,8-19.5,12.5-32c0.4-1.2,0.9-2.4,1.3-3.6
				c0.1-0.3,0.2-0.5,0.3-0.8c4.4-12.3,8.5-24.6,12.5-36.6c0.5-1.6,1.1-3.2,1.6-4.8c4.5-13.7,8.6-27,12.5-39.6
				c0.5-1.7,1.1-3.5,1.6-5.2c4.7-15.6,8.9-30.1,12.5-42.7c0.5-1.9,1.1-3.8,1.6-5.6c7.4-26.3,11.8-43.7,12.2-45.2c0-0.1,0-0.1,0-0.1
				l0.6-2.4l0.9,2.3c0,0,0,0.1,0.1,0.1c0.5,1.3,4.9,12.3,12.5,28.2c0.5,1.1,1,2.2,1.6,3.3c3.6,7.3,7.7,15.5,12.5,24.2
				c0.5,0.9,1,1.9,1.6,2.9c3.8,6.9,8,14,12.5,21.3c0.5,0.8,1,1.7,1.6,2.5c2.7,4.2,5.4,8.5,8.3,12.7c1.4,2,2.8,4,4.2,6
				c0.5,0.7,1,1.5,1.6,2.2c3.9,5.4,8.1,10.9,12.5,16.4c0.5,0.6,1,1.3,1.6,1.9c4,4.8,8.2,9.6,12.5,14.2c0.5,0.6,1,1.1,1.6,1.7
				c4,4.2,8.2,8.2,12.5,12.1c0.5,0.5,1,0.9,1.6,1.4c4.1,3.5,8.2,6.9,12.5,10c0.5,0.4,1.1,0.8,1.6,1.1c4.1,2.9,8.2,5.6,12.5,8
				c0.5,0.3,1.1,0.6,1.6,0.9c4.1,2.3,8.3,4.3,12.5,6c0.5,0.2,1.1,0.4,1.6,0.6c4.1,1.6,8.3,2.9,12.5,4c0.5,0.1,1.1,0.3,1.6,0.4
				c4.1,0.9,8.3,1.6,12.5,2c0.5,0,1.1,0.1,1.6,0.1c4,0.3,8,0.3,12-0.1L333.3,634.8z"/>
		</g>
		<g>
			<path class="st2" d="M152.1,449.3v268.2h-1.6V449.4c0-0.1,0-0.1,0-0.1l0.6-2.4l0.9,2.3C152.1,449.2,152.1,449.3,152.1,449.3z"/>
		</g>
		<g>
			<path class="st2" d="M166.2,480.8v232.8l-1.6,0.3V477.5C165.1,478.6,165.7,479.7,166.2,480.8z"/>
		</g>
		<g>
			<path class="st2" d="M180.3,507.8v202.8l-1.6,0.3V505C179.2,505.9,179.8,506.9,180.3,507.8z"/>
		</g>
		<g>
			<path class="st2" d="M194.4,531.6v176l0,0l-1.5,0.3V529.1C193.3,529.9,193.8,530.8,194.4,531.6
				C194.3,531.6,194.4,531.6,194.4,531.6z"/>
		</g>
		<g>
			<path class="st2" d="M208.5,552.6v164.9h-1.6V550.4C207.4,551.1,207.9,551.9,208.5,552.6z"/>
		</g>
		<g>
			<path class="st2" d="M222.5,570.9v146.6H221V569C221.5,569.6,222,570.3,222.5,570.9z"/>
		</g>
		<g>
			<path class="st2" d="M236.6,586.7v112l-0.4,0.1l-1.2,0.3v-114c0.4,0.4,0.8,0.8,1.2,1.2C236.4,586.5,236.5,586.6,236.6,586.7z"/>
		</g>
		<g>
			<path class="st2" d="M138.4,494.6v222.9h-1.6V500.2C137.4,498.3,137.9,496.4,138.4,494.6z"/>
		</g>
		<g>
			<path class="st2" d="M124.3,543v174.5h-1.6V548.2C123.3,546.4,123.8,544.7,124.3,543z"/>
		</g>
		<g>
			<path class="st2" d="M110.2,587.8v129.7h-1.6V592.6C109.2,591,109.7,589.4,110.2,587.8z"/>
		</g>
		<g>
			<path class="st2" d="M96.1,629.2v88.2h-1.6v-83.8c0.4-1.2,0.9-2.4,1.3-3.6C96,629.8,96.1,629.5,96.1,629.2z"/>
		</g>
		<g>
			<path class="st2" d="M82.1,665.6v51.9h-1.6v-48.3C81,668,81.5,666.8,82.1,665.6z"/>
		</g>
		<g>
			<path class="st2" d="M68,694.2v23.2h-1.6v-20.6C66.9,696,67.4,695.2,68,694.2z"/>
		</g>
		<g>
			<path class="st2" d="M250.7,600.2v95.5l-0.4,0.1l-1.2,0.2v-97.3c0.4,0.3,0.8,0.7,1.2,1C250.4,600,250.6,600.1,250.7,600.2z"/>
		</g>
		<g>
			<path class="st2" d="M264.8,611.4v81.4l-0.4,0.1l-1.2,0.2v-82.9c0.4,0.3,0.8,0.6,1.2,0.8C264.5,611.2,264.7,611.3,264.8,611.4z"
				/>
		</g>
		<g>
			<path class="st2" d="M278.9,620.2v69.6l-0.4,0.1l-1.2,0.3v-70.8c0.4,0.2,0.8,0.4,1.2,0.6C278.6,620.1,278.7,620.2,278.9,620.2z"
				/>
		</g>
		<g>
			<path class="st2" d="M292.9,626.9v59.9l-0.4,0.1l-1.2,0.2v-60.9c0.4,0.2,0.8,0.3,1.2,0.5C292.7,626.8,292.8,626.8,292.9,626.9z"
				/>
		</g>
		<g>
			<path class="st2" d="M307,631.2v52.6l-0.4,0.1l-1.2,0.2v-53.3c0.4,0.1,0.8,0.2,1.2,0.3C306.8,631.2,306.9,631.2,307,631.2z"/>
		</g>
		<g>
			<path class="st2" d="M321.1,633.3v47.6l-0.4,0.1l-1.2,0.3v-48c0.4,0,0.8,0.1,1.2,0.1C320.8,633.3,321,633.3,321.1,633.3z"/>
		</g>
	</g>
	<rect x="603.3" y="295.3" class="st3" width="45.2" height="532.5"/>
	<rect x="603.3" y="296" class="st4" width="12.1" height="531.8"/>
	<polygon class="st5" points="648.5,295.3 648.5,827.8 603.3,827.8 603.3,826.6 643.5,826.6 643.5,295.3 	"/>
	<g>
		<g>
			<path class="st2" d="M882.7,479.8c-8.6,0.6-17.2,0.7-25.8,0.1c-1.1-0.1-2.2-0.1-3.3-0.2c-8.8-0.7-17.7-2.1-26.5-4
				c-1.1-0.2-2.2-0.5-3.3-0.8c-8.8-2.1-17.7-4.9-26.5-8.2c-1.1-0.4-2.2-0.8-3.3-1.3c-8.8-3.5-17.7-7.7-26.5-12.4
				c-1.1-0.6-2.2-1.2-3.3-1.8c-8.9-4.9-17.7-10.5-26.5-16.7c-1.1-0.8-2.2-1.6-3.3-2.4c-2.9-2.1-5.9-4.3-8.8-6.6
				c-5.9-4.5-11.8-9.3-17.7-14.4c-1.1-0.9-2.2-1.9-3.3-2.9c-8.9-7.8-17.7-16.3-26.5-25.3c-1.1-1.1-2.2-2.3-3.3-3.5
				c-8.9-9.3-17.7-19.2-26.5-29.8c-1.1-1.3-2.2-2.7-3.3-4c-8.9-10.8-17.7-22.3-26.5-34.4c-1.1-1.5-2.2-3.1-3.3-4.6
				c-3.9-5.5-7.8-11-11.7-16.7c-5.1-7.5-10.1-15.1-14.9-22.6c-1.1-1.8-2.2-3.5-3.3-5.3c-9.5-15.1-18.4-30.1-26.5-44.6
				c-1.1-2-2.2-4-3.3-6c-10-18-18.9-35.2-26.5-50.6c-1.1-2.3-2.3-4.6-3.3-6.8c-13-26.8-22-47.8-26.5-58.6c-0.5-1.2-0.9-2.3-1.3-3.2
				c-0.5,2-1.2,4.7-2,7.9c-4.5,17.3-13.4,51-25.8,94.8c-1.1,3.9-2.2,7.8-3.3,11.8c-7.7,27-16.6,57.4-26.5,89.9
				c-1.1,3.6-2.2,7.3-3.3,10.9c-8.2,26.7-17.1,54.8-26.5,83.4c-1.1,3.4-2.2,6.7-3.3,10.1c-7.7,23.1-15.7,46.5-24,69.9
				c-0.9,2.4-1.7,4.8-2.6,7.2c-1.1,3.1-2.2,6.2-3.3,9.2c-9,24.5-17.9,46.7-26.5,66.3c-1.1,2.5-2.2,5-3.3,7.5
				c-9.2,20.3-18,37.5-26.5,51.6c-1.1,1.9-2.2,3.7-3.3,5.4c-4.1,6.5-8.1,12.2-12,17c-14.5,18.2-23.4,20.2-26.6,20.2
				c-0.7,0-1.1-0.1-1.3-0.1l0.8-3.3c0.2,0,13.5,1.7,39.1-40.3c1.1-1.8,2.2-3.7,3.3-5.6c7.8-13.4,16.6-30.7,26.5-53.1
				c1.1-2.5,2.2-5,3.3-7.7c8.2-19,17-41.4,26.5-67.8c0.9-2.5,1.8-5.1,2.8-7.7c0.2-0.6,0.4-1.1,0.6-1.7c9.2-26,18.1-52.1,26.5-77.7
				c1.1-3.4,2.2-6.8,3.3-10.2c9.5-29,18.3-57.2,26.5-84.1c1.1-3.7,2.2-7.4,3.3-11c10-33.1,18.9-63.8,26.5-90.7c1.1-4,2.3-8,3.3-11.8
				c15.6-55.8,24.9-92.6,25.8-95.9c0-0.1,0-0.2,0.1-0.2l1.3-5.1l1.9,4.9c0,0,0,0.1,0.1,0.3c1.1,2.8,10.4,26,26.5,59.8
				c1.1,2.3,2.2,4.6,3.3,6.9c7.5,15.5,16.4,32.9,26.5,51.3c1.1,2,2.2,4,3.3,6.1c8.1,14.6,17,29.8,26.5,45.2c1.1,1.8,2.2,3.6,3.3,5.3
				c5.7,9,11.5,18,17.7,27c2.9,4.2,5.8,8.5,8.9,12.8c1.1,1.6,2.2,3.1,3.3,4.7c8.3,11.5,17.1,23.2,26.5,34.7c1.1,1.4,2.2,2.7,3.3,4.1
				c8.4,10.2,17.3,20.3,26.5,30.1c1.1,1.2,2.2,2.3,3.3,3.5c8.5,8.9,17.4,17.4,26.5,25.6c1.1,1,2.2,2,3.3,2.9
				c8.6,7.5,17.4,14.6,26.5,21.3c1.1,0.8,2.2,1.6,3.3,2.4c8.6,6.2,17.5,11.8,26.5,17c1.1,0.6,2.2,1.2,3.3,1.9
				c8.7,4.8,17.5,9,26.5,12.7c1.1,0.5,2.2,0.9,3.3,1.3c8.7,3.4,17.5,6.2,26.5,8.5c1.1,0.3,2.2,0.5,3.3,0.8c8.7,2,17.5,3.4,26.5,4.2
				c1.1,0.1,2.2,0.2,3.3,0.2c8.4,0.6,16.9,0.5,25.5-0.1L882.7,479.8z"/>
		</g>
		<g>
			<path class="st2" d="M498.6,86.4v561.5l-3.3,0.7v-562c0-0.1,0-0.2,0.1-0.2l1.3-5.1l1.9,4.9C498.5,86.1,498.5,86.2,498.6,86.4z"/>
		</g>
		<g>
			<path class="st2" d="M528.4,153.1V637l-0.1,0l-3.3,0.7V146.2C526.2,148.4,527.3,150.7,528.4,153.1z"/>
		</g>
		<g>
			<path class="st2" d="M558.3,210.4v420.3l-0.1,0l-3.3,0.7v-427C556.1,206.4,557.2,208.4,558.3,210.4z"/>
		</g>
		<g>
			<path class="st2" d="M588.2,260.9v363.4l-0.1,0l-3.2,0.7V255.6c1.1,1.7,2.2,3.5,3.2,5.2C588.1,260.8,588.1,260.9,588.2,260.9z"/>
		</g>
		<g>
			<path class="st2" d="M618,305.4v317.9l-3.3,0.7V300.7C615.8,302.3,616.9,303.8,618,305.4z"/>
		</g>
		<g>
			<path class="st2" d="M647.9,344.2v272.9l-0.7,0.1l-0.1,0l-2.5,0.5V340.1C645.7,341.5,646.8,342.8,647.9,344.2z"/>
		</g>
		<g>
			<path class="st2" d="M677.8,377.8v227.6l-0.8,0.2l-2.5,0.5V374.3c0.8,0.9,1.6,1.7,2.5,2.6C677.2,377.2,677.5,377.5,677.8,377.8z"
				/>
		</g>
		<g>
			<path class="st2" d="M469.4,182.5v471.4l-3.3,0.7V194.3C467.2,190.3,468.4,186.3,469.4,182.5z"/>
		</g>
		<g>
			<path class="st2" d="M439.6,285v370.2h-3.3V296C437.4,292.3,438.5,288.6,439.6,285z"/>
		</g>
		<g>
			<path class="st2" d="M409.7,380v275.1h-3.3V390.2C407.5,386.8,408.6,383.4,409.7,380z"/>
		</g>
		<g>
			<path class="st2" d="M379.8,467.9v187.2h-3.3V477.3c0.9-2.5,1.8-5.1,2.8-7.7C379.5,469,379.6,468.5,379.8,467.9z"/>
		</g>
		<g>
			<path class="st2" d="M350,545.1v110.1h-3.3V552.7C347.7,550.2,348.8,547.7,350,545.1z"/>
		</g>
		<g>
			<path class="st2" d="M320.1,605.8v49.3h-3.3v-43.7C317.9,609.6,319,607.8,320.1,605.8z"/>
		</g>
		<g>
			<path class="st2" d="M707.6,406.3v192.8l-0.8,0.2l-2.5,0.5V403.4c0.8,0.7,1.7,1.5,2.5,2.2C707.1,405.9,707.4,406.1,707.6,406.3z"
				/>
		</g>
		<g>
			<path class="st2" d="M737.5,430v162.8l-0.8,0.2l-2.5,0.5V427.6c0.8,0.6,1.7,1.2,2.5,1.8C736.9,429.6,737.2,429.8,737.5,430z"/>
		</g>
		<g>
			<path class="st2" d="M767.4,448.9v137.6l-0.9,0.2l-2.5,0.5V447c0.8,0.5,1.7,0.9,2.5,1.4C766.8,448.5,767.1,448.7,767.4,448.9z"/>
		</g>
		<g>
			<path class="st2" d="M797.2,462.9v117.2l-0.9,0.2l-2.5,0.5V461.6c0.8,0.3,1.7,0.7,2.5,1C796.7,462.7,797,462.8,797.2,462.9z"/>
		</g>
		<g>
			<path class="st2" d="M827.1,472.2v101.7l-0.9,0.2l-2.5,0.5V471.4c0.8,0.2,1.7,0.4,2.5,0.6C826.5,472,826.8,472.1,827.1,472.2z"/>
		</g>
		<g>
			<path class="st2" d="M857,476.6v90.9l-0.8,0.2l-2.5,0.5v-91.9c0.8,0.1,1.7,0.1,2.5,0.2C856.4,476.5,856.7,476.6,857,476.6z"/>
		</g>
	</g>
	<g>
		<polygon class="st3" points="1024,436.6 1024,539.7 1010.1,542.5 1006.4,543.3 977,549.4 973.3,550.1 944.9,556 943.9,556.2 
			941.2,556.7 940.2,556.9 911.8,562.8 910.9,563 908.1,563.5 907.2,563.7 878.7,569.6 877.8,569.8 875,570.4 874.1,570.6 
			845.6,576.4 844.7,576.6 841.9,577.2 841,577.4 812.6,583.2 811.6,583.4 808.9,584 807.9,584.2 779.5,590 778.5,590.2 
			775.8,590.8 774.8,591 746.4,596.8 745.5,597 742.7,597.6 741.8,597.8 714,603.5 713.3,603.7 712.4,603.8 709.6,604.4 
			708.7,604.6 708.4,604.7 700,606.4 696.3,607.2 680.3,610.5 679.3,610.7 677.4,611.1 676.6,611.2 675.6,611.4 663.9,613.8 
			647.9,617.1 647.2,617.3 647.1,617.3 644.6,617.8 643.5,618 643.4,618.1 618,623.3 614.7,624 614.1,624.1 614,624.1 610.4,624.8 
			610.3,624.9 581,630.9 580.9,630.9 577.3,631.7 577.2,631.7 563.7,634.5 558.2,635.6 547.9,637.7 544.2,638.5 527.1,642 
			515.7,644.3 513.6,644.8 512,645.1 498.6,647.9 495.2,648.6 469.4,653.9 466.1,654.6 413.4,665.4 411.6,665.8 397.8,668.6 
			396,669 382.2,671.8 380.4,672.2 366.6,675 364.8,675.4 351.4,678.2 351,678.2 349.7,678.5 349.2,678.6 335.8,681.4 335.4,681.5 
			334.1,681.7 333.6,681.8 320.2,684.6 319.8,684.7 318.5,684.9 318,685 304.6,687.8 304.2,687.9 302.9,688.2 302.4,688.2 289,691 
			288.6,691.1 287.3,691.4 286.8,691.5 273.4,694.2 273,694.3 271.7,694.6 271.2,694.7 257.8,697.4 257.4,697.5 256.1,697.8 
			255.6,697.9 242.6,700.6 242.2,700.6 241.8,700.7 240.5,701 240,701.1 226.6,703.9 226.2,704 225.3,704.1 224.9,704.2 
			224.4,704.3 218.9,705.4 211,707.1 211,707.1 209.3,707.4 209.2,707.4 195.4,710.3 193.7,710.6 179.8,713.5 178.1,713.8 
			171.7,715.2 169.1,715.7 164.2,716.7 162.5,717.1 154.4,718.7 148.1,720 94.5,731.1 39.3,731.1 39.3,719.1 48.8,716.3 56.5,714.1 
			69.3,710.5 71.1,710 84.9,706 86.7,705.5 100.5,701.5 102.3,701 116.1,697 117.8,696.5 126.3,694.1 129,693.3 131.3,692.7 
			131.7,692.6 133,692.2 133.4,692.1 146.9,688.2 147.3,688.1 148.1,687.9 148.6,687.7 149,687.6 154.4,686 154.7,686 159.2,684.7 
			162.4,683.7 162.5,683.7 164.2,683.2 164.2,683.2 169.1,681.8 169.8,681.6 171.7,681.1 178.1,679.3 178.1,679.3 179.8,678.8 
			179.8,678.8 193.7,674.8 193.7,674.8 195.4,674.3 195.4,674.3 209.2,670.3 209.3,670.3 211,669.8 211,669.8 218.9,667.6 
			220.8,667 224.4,666 224.9,665.8 225.3,665.7 226.2,665.5 226.6,665.3 231.4,664 236,662.7 240,661.5 240.5,661.4 241.8,661 
			242.2,660.9 242.6,660.8 255.6,657 256.1,656.9 257.4,656.5 257.8,656.4 271.2,652.5 271.7,652.4 273,652 273.4,651.9 
			286.5,648.2 286.6,648.1 286.6,648.1 286.8,648.1 287.3,647.9 288.6,647.6 289,647.4 294.9,645.7 302.4,643.6 302.9,643.5 
			304.2,643.1 304.6,643 316.8,639.5 318,639.1 318.1,639.1 318.1,639.1 318.5,639 319.8,638.6 320.1,638.5 320.2,638.5 326,636.8 
			333.6,634.7 334.1,634.5 335.4,634.1 335.8,634 346.6,630.9 346.6,630.9 349.2,630.2 349.7,630.1 350,630 350.3,629.9 351,629.7 
			351.4,629.5 354.2,628.7 360,627.1 360.1,627.1 364.8,625.7 366.6,625.2 376.5,622.4 379.7,621.4 379.8,621.4 380.4,621.2 
			382.2,620.7 383.4,620.4 394.8,617.1 394.8,617.1 396,616.7 397.8,616.3 398.3,616.1 406.4,613.8 409.7,612.8 412.7,612 
			416.5,610.9 436.2,605.2 439.6,604.3 445.8,602.5 449.5,601.4 466.1,596.7 469.4,595.7 471.2,595.2 476.8,593.6 478,593.2 
			478.9,593 481.7,592.2 482.6,591.9 495.2,588.3 498.6,587.4 511,583.8 512,583.5 513.6,583 514.7,582.7 515.7,582.4 525.1,579.7 
			527.1,579.2 527.6,579 528.4,578.8 537.3,576.2 544.1,574.3 544.2,574.3 547.8,573.2 547.9,573.2 555,571.2 558.2,570.3 
			558.3,570.2 559.7,569.8 563.7,568.6 577.2,564.8 577.3,564.8 580.9,563.7 581,563.7 584.8,562.6 588.2,561.6 610.3,555.3 
			610.4,555.3 614,554.2 614.1,554.2 614.7,554 618,553.1 643.4,545.8 643.5,545.8 644.6,545.5 647.1,544.8 647.2,544.7 
			647.9,544.5 663.9,539.9 667.9,538.8 674.4,536.9 675.6,536.6 676.6,536.3 677.4,536.1 677.8,535.9 679.3,535.5 680.3,535.2 
			690.3,532.3 700,529.6 704.3,528.3 707.6,527.4 708.4,527.1 708.7,527.1 709.6,526.8 712.4,526 713.3,525.7 714,525.6 
			734.2,519.8 737.5,518.8 741.8,517.6 742.7,517.3 745.5,516.5 746.4,516.3 764,511.2 767.4,510.2 774.8,508.1 775.8,507.8 
			778.5,507 779.5,506.8 793.9,502.6 797.2,501.7 807.9,498.6 808.9,498.3 811.6,497.6 812.6,497.3 823.8,494.1 827.1,493.1 
			841,489.1 841.9,488.9 844.7,488.1 845.6,487.8 853.6,485.5 857,484.5 871.8,480.3 871.8,480.3 874.1,479.6 875,479.4 
			877.8,478.6 878.7,478.3 882.5,477.2 907.2,470.1 908.1,469.9 910.9,469.1 911.8,468.8 938.8,461.1 938.8,461.1 940.2,460.7 
			941.2,460.4 943.9,459.6 944.9,459.3 949,458.1 949,458.1 973.3,451.2 977,450.1 1006.4,441.7 1010.1,440.6 		"/>
		<polygon class="st2" points="1024,482.5 1024,539.7 1010.1,542.5 1006.4,543.3 977,549.4 973.3,550.1 944.9,556 943.9,556.2 
			941.2,556.7 940.2,556.9 911.8,562.8 910.9,563 908.1,563.5 907.2,563.7 878.7,569.6 877.8,569.8 875,570.4 874.1,570.6 
			845.6,576.4 844.7,576.6 841.9,577.2 841,577.4 812.6,583.2 811.6,583.4 808.9,584 807.9,584.2 779.5,590 778.5,590.2 
			775.8,590.8 774.8,591 746.4,596.8 745.5,597 742.7,597.6 741.8,597.8 714,603.5 713.3,603.7 712.4,603.8 709.6,604.4 
			708.7,604.6 708.4,604.7 700,606.4 696.3,607.2 680.3,610.5 679.3,610.7 677.4,611.1 676.6,611.2 675.6,611.4 663.9,613.8 
			647.9,617.1 647.2,617.3 647.1,617.3 644.6,617.8 643.5,618 643.4,618.1 618,623.3 614.7,624 614.1,624.1 614,624.1 610.4,624.8 
			610.3,624.9 581,630.9 580.9,630.9 577.3,631.7 577.2,631.7 563.7,634.5 558.2,635.6 547.9,637.7 544.2,638.5 527.1,642 
			515.7,644.3 513.6,644.8 512,645.1 498.6,647.9 495.2,648.6 469.4,653.9 466.1,654.6 413.4,665.4 411.6,665.8 397.8,668.6 
			396,669 382.2,671.8 380.4,672.2 366.6,675 364.8,675.4 351.4,678.2 351,678.2 349.7,678.5 349.2,678.6 335.8,681.4 335.4,681.5 
			334.1,681.7 333.6,681.8 320.2,684.6 319.8,684.7 318.5,684.9 318,685 304.6,687.8 304.2,687.9 302.9,688.2 302.4,688.2 289,691 
			288.6,691.1 287.3,691.4 286.8,691.5 273.4,694.2 273,694.3 271.7,694.6 271.2,694.7 257.8,697.4 257.4,697.5 256.1,697.8 
			255.6,697.9 242.6,700.6 242.2,700.6 241.8,700.7 240.5,701 240,701.1 226.6,703.9 226.2,704 225.3,704.1 224.9,704.2 
			224.4,704.3 218.9,705.4 211,707.1 211,707.1 209.3,707.4 209.2,707.4 195.4,710.3 193.7,710.6 179.8,713.5 178.1,713.8 
			171.7,715.2 169.1,715.7 164.2,716.7 162.5,717.1 154.4,718.7 148.1,720 94.5,731.1 39.3,731.1 39.3,731 100.5,715.6 102.3,715.1 
			116.1,711.6 117.8,711.2 131.3,707.8 131.7,707.7 133,707.4 133.4,707.3 146.9,703.9 147.3,703.8 148.1,703.6 148.6,703.4 
			149,703.3 154.4,702 162.4,699.9 162.5,699.9 164.2,699.5 164.2,699.5 169.1,698.2 171.7,697.6 178.1,696 178.1,696 179.8,695.6 
			179.8,695.5 193.7,692.1 193.7,692 195.4,691.6 195.4,691.6 209.2,688.1 209.3,688.1 211,687.7 211,687.7 218.9,685.7 
			220.8,685.2 224.4,684.3 224.9,684.2 225.3,684.1 226.2,683.8 226.6,683.7 231.4,682.5 236,681.4 240,680.3 240.5,680.2 
			241.8,679.9 242.2,679.8 242.6,679.7 255.6,676.4 256.1,676.3 257.4,676 257.8,675.9 271.2,672.5 271.7,672.4 273,672 
			273.4,671.9 286.8,668.5 287.3,668.4 288.6,668.1 289,668 302.4,664.6 302.9,664.5 304.2,664.2 304.6,664.1 318,660.7 
			318.5,660.6 319.8,660.2 320.2,660.1 333.6,656.7 334.1,656.6 335.4,656.3 335.8,656.2 346.6,653.5 349.2,652.8 349.7,652.7 
			350,652.6 351,652.4 351.4,652.2 364.8,648.9 366.6,648.4 376.5,645.9 379.7,645.1 379.8,645.1 380.4,644.9 382.2,644.5 
			383.4,644.2 396,641 397.8,640.5 406.4,638.4 409.7,637.5 411.6,637 412.7,636.8 413.4,636.6 416.5,635.8 433.9,631.4 
			436.2,630.8 439.6,630 445,628.6 445.8,628.4 449.5,627.5 466.1,623.3 469.4,622.5 478,620.3 478.9,620.1 481.7,619.4 
			482.6,619.1 495.2,616 498.6,615.1 511,612 512,611.7 513.6,611.3 514.7,611 515.7,610.8 525.1,608.4 527.1,607.9 528.4,607.6 
			530.1,607.2 534.3,606.1 537.3,605.3 544.1,603.6 544.2,603.6 547.8,602.7 547.9,602.6 555,600.9 558.2,600.1 558.3,600 
			559.7,599.7 563.7,598.7 577.2,595.3 577.3,595.2 580.9,594.3 581,594.3 584.8,593.3 588.2,592.5 610.3,586.9 610.4,586.9 
			614,586 614.1,586 614.7,585.8 618,585 643.4,578.6 643.5,578.5 644.6,578.3 647.1,577.6 647.2,577.6 647.9,577.4 663.9,573.4 
			667.9,572.4 674.4,570.7 675.6,570.4 676.6,570.2 677.4,570 677.8,569.9 679.3,569.5 680.3,569.3 690.3,566.7 700,564.3 
			704.3,563.2 707.6,562.3 708.4,562.1 708.7,562.1 709.6,561.8 712.4,561.1 713.3,560.9 714,560.7 734.2,555.6 737.5,554.8 
			741.8,553.7 742.7,553.5 745.5,552.8 746.4,552.6 764,548.1 767.4,547.3 774.8,545.4 775.8,545.1 778.5,544.5 779.5,544.2 
			793.9,540.6 797.2,539.7 807.9,537 808.9,536.8 811.6,536.1 812.6,535.9 823.8,533 827.1,532.2 841,528.7 841.9,528.5 
			844.7,527.8 845.6,527.5 853.6,525.5 857,524.7 874.1,520.3 875,520.1 877.8,519.4 878.7,519.2 907.2,512 908.1,511.8 
			910.9,511.1 911.8,510.8 940.2,503.7 941.2,503.4 943.9,502.7 944.9,502.5 973.3,495.3 977,494.4 1006.4,487 1010.1,486 		"/>
	</g>
	<g>
		<rect x="489.3" y="40.8" class="st4" width="11" height="25.4"/>
		<g>
			<rect x="485.5" y="57.2" class="st3" width="19.3" height="330.8"/>
			<rect x="485.5" y="57.2" class="st3" width="19.3" height="330.8"/>
			<rect x="485.5" y="57.7" class="st4" width="5.2" height="330.3"/>
			<polygon class="st5" points="504.9,57.2 504.9,388 485.5,388 485.5,387.3 502.7,387.3 502.7,57.2 			"/>
		</g>
		<g>
			<rect x="480.2" y="155.6" class="st3" width="32.6" height="459.4"/>
			<rect x="480.2" y="155.6" class="st3" width="32.6" height="459.4"/>
			<rect x="480.2" y="156.2" class="st4" width="8.8" height="458.8"/>
			<polygon class="st5" points="512.8,155.6 512.8,615 480.2,615 480.2,614 509.2,614 509.2,155.6 			"/>
		</g>
		<g>
			<rect x="467.6" y="295.3" class="st3" width="45.2" height="532.5"/>
			<rect x="467.6" y="295.3" class="st3" width="45.2" height="532.5"/>
			<rect x="467.6" y="296" class="st4" width="12.1" height="531.8"/>
			<polygon class="st5" points="512.8,295.3 512.8,827.8 467.6,827.8 467.6,826.6 507.8,826.6 507.8,295.3 			"/>
		</g>
	</g>
<!--	<g>-->
<!--		<polygon class="st6" points="674.4,917.4 441.9,917.4 458.1,836.3 460.5,824.4 655.9,824.4 658.3,836.3 		"/>-->
<!--		<polygon class="st6" points="674.4,917.4 441.9,917.4 458.1,836.3 460.5,824.4 655.9,824.4 658.3,836.3 		"/>-->
<!--		<polygon class="st7" points="658.3,836.3 458.1,836.3 460.5,824.4 655.9,824.4 		"/>-->
<!--		<g>-->
<!--			<rect x="491.6" y="832.9" class="st7" width="11.9" height="84.5"/>-->
<!--			<rect x="532" y="832.9" class="st7" width="11.9" height="84.5"/>-->
<!--			<rect x="572.4" y="832.9" class="st7" width="11.9" height="84.5"/>-->
<!--			<rect x="612.8" y="832.9" class="st7" width="12" height="84.5"/>-->
<!--		</g>-->
<!--	</g>-->
	<g>
		<path class="st3" d="M179.7,444.1L179.7,444.1c-1,0-1.7-0.8-1.7-1.7v-7.1c0-1,0.8-1.7,1.7-1.7h0c1,0,1.7,0.8,1.7,1.7v7.1
			C181.5,443.4,180.7,444.1,179.7,444.1z"/>
		<g>
			<g>
				<rect x="161.4" y="438.2" class="st3" width="36.3" height="12.3"/>
				<rect x="164" y="440.1" class="st2" width="0.8" height="8.5"/>
				<rect x="170.3" y="440.1" class="st2" width="0.8" height="8.5"/>
				<rect x="176.5" y="440.1" class="st2" width="0.8" height="8.5"/>
				<rect x="182.7" y="440.1" class="st2" width="0.8" height="8.5"/>
				<rect x="188.9" y="440.1" class="st2" width="0.8" height="8.5"/>
				<rect x="195.1" y="440.1" class="st2" width="0.8" height="8.5"/>
			</g>
			<g>
				<polygon class="st2" points="162.4,438.1 162.4,451.7 155.8,453.3 154.6,453.6 154.6,438.1 				"/>
				<rect x="154" y="438.1" class="st2" width="1.8" height="16.7"/>
			</g>
			<g>
				<polygon class="st2" points="204.9,438.1 204.9,453.6 203.7,453.3 197.1,451.7 197.1,438.1 				"/>
				<rect x="203.7" y="438.1" class="st2" width="1.8" height="16.7"/>
			</g>
		</g>
	</g>
	<rect x="206.7" y="427.8" class="st4" width="5.2" height="12"/>
	<g>
		<rect x="204.4" y="435.6" class="st3" width="9.1" height="156"/>
		<rect x="204.4" y="435.6" class="st3" width="9.1" height="156"/>
		<rect x="211.1" y="435.8" class="st4" width="2.4" height="155.7"/>
		<polygon class="st5" points="204.4,435.6 204.4,591.5 213.6,591.5 213.6,591.2 205.5,591.2 205.5,435.6 		"/>
	</g>
	<g>
		<rect x="201.5" y="482" class="st3" width="15.4" height="216.6"/>
		<rect x="201.5" y="482" class="st3" width="15.4" height="216.6"/>
		<rect x="212.7" y="482.3" class="st4" width="4.1" height="216.3"/>
		<polygon class="st5" points="201.5,482 201.5,698.6 216.9,698.6 216.9,698.1 203.2,698.1 203.2,482 		"/>
	</g>
	<g>
		<g>
			<rect x="164.2" y="558" class="st3" width="31.7" height="12.3"/>
			<rect x="166.6" y="560" class="st2" width="0.7" height="8.5"/>
			<rect x="172" y="560" class="st2" width="0.7" height="8.5"/>
			<rect x="177.4" y="560" class="st2" width="0.7" height="8.5"/>
			<rect x="182.8" y="560" class="st2" width="0.7" height="8.5"/>
			<rect x="188.2" y="560" class="st2" width="0.7" height="8.5"/>
			<rect x="193.7" y="560" class="st2" width="0.7" height="8.5"/>
		</g>
		<g>
			<polygon class="st2" points="158.3,573.5 158.3,554.9 165.1,556.8 165.1,571.5 			"/>
			<rect x="157.8" y="553.7" class="st2" width="1.6" height="20.9"/>
		</g>
		<g>
			<polygon class="st2" points="202.2,573.5 202.2,554.9 195.4,556.8 195.4,571.5 			"/>
			
				<rect x="201.1" y="553.7" transform="matrix(-1 -4.809409e-11 4.809409e-11 -1 403.8478 1128.3251)" class="st2" width="1.6" height="20.9"/>
		</g>
	</g>
	<g>
		<g>
			<rect x="164.2" y="499.1" class="st3" width="31.7" height="12.3"/>
			<rect x="166.6" y="501.1" class="st2" width="0.7" height="8.5"/>
			<rect x="172" y="501.1" class="st2" width="0.7" height="8.5"/>
			<rect x="177.4" y="501.1" class="st2" width="0.7" height="8.5"/>
			<rect x="182.8" y="501.1" class="st2" width="0.7" height="8.5"/>
			<rect x="188.2" y="501.1" class="st2" width="0.7" height="8.5"/>
			<rect x="193.7" y="501.1" class="st2" width="0.7" height="8.5"/>
		</g>
		<g>
			<polygon class="st2" points="158.3,514.6 158.3,496 165.1,497.9 165.1,512.7 			"/>
			<rect x="157.8" y="494.9" class="st2" width="1.6" height="20.9"/>
		</g>
		<g>
			<polygon class="st2" points="202.2,514.6 202.2,496 195.4,497.9 195.4,512.7 			"/>
			
				<rect x="201.1" y="494.9" transform="matrix(-1 -4.122359e-11 4.122359e-11 -1 403.8478 1010.5923)" class="st2" width="1.6" height="20.9"/>
		</g>
	</g>
	<rect x="201.5" y="547.8" class="st3" width="21.3" height="251.1"/>
	<rect x="201.5" y="547.8" class="st3" width="21.3" height="251.1"/>
	<rect x="201.5" y="548.2" class="st4" width="5.7" height="250.7"/>
	<polygon class="st5" points="222.8,547.8 222.8,798.9 201.5,798.9 201.5,798.4 220.5,798.4 220.5,547.8 	"/>
<!--	<g>-->
<!--		<polygon class="st6" points="235,841.2 125.4,841.2 133,802.9 134.2,797.3 226.3,797.3 227.4,802.9 		"/>-->
<!--		<polygon class="st6" points="235,841.2 125.4,841.2 133,802.9 134.2,797.3 226.3,797.3 227.4,802.9 		"/>-->
<!--		<polygon class="st7" points="227.4,802.9 133.1,802.9 134.2,797.3 226.3,797.3 		"/>-->
<!--		<g>-->
<!--			<rect x="148.9" y="801.3" class="st7" width="5.6" height="39.9"/>-->
<!--			<rect x="167.9" y="801.3" class="st7" width="5.6" height="39.9"/>-->
<!--			<rect x="186.9" y="801.3" class="st7" width="5.6" height="39.9"/>-->
<!--			<rect x="206" y="801.3" class="st7" width="5.6" height="39.9"/>-->
<!--		</g>-->
<!--	</g>-->
	<g>
		<rect x="147.8" y="427.8" class="st4" width="5.2" height="12"/>
		<g>
			<rect x="146" y="435.6" class="st3" width="9.1" height="156"/>
			<rect x="146" y="435.6" class="st3" width="9.1" height="156"/>
			<rect x="146" y="435.8" class="st4" width="2.4" height="155.7"/>
			<polygon class="st5" points="155.1,435.6 155.1,591.5 146,591.5 146,591.2 154.1,591.2 154.1,435.6 			"/>
		</g>
		<g>
			<rect x="143.5" y="482" class="st3" width="15.4" height="216.6"/>
			<rect x="143.5" y="482" class="st3" width="15.4" height="216.6"/>
			<rect x="143.5" y="482.3" class="st4" width="4.1" height="216.3"/>
			<polygon class="st5" points="158.8,482 158.8,698.6 143.5,698.6 143.5,698.1 157.1,698.1 157.1,482 			"/>
		</g>
		<g>
			<rect x="137.5" y="547.8" class="st3" width="21.3" height="251.1"/>
			<rect x="137.5" y="547.8" class="st3" width="21.3" height="251.1"/>
			<rect x="137.5" y="548.2" class="st4" width="5.7" height="250.7"/>
			<polygon class="st5" points="158.8,547.8 158.8,798.9 137.5,798.9 137.5,798.4 156.5,798.4 156.5,547.8 			"/>
		</g>
	</g>
</g>
</svg>
